HIERARCHY
ROOT Hips
{
	OFFSET 0.00000 0.00000 0.00000
	CHANNELS 6 Xposition Yposition Zposition Zrotation Yrotation Xrotation 
	JOINT LHipJoint
	{
		OFFSET 0 0 0
		CHANNELS 3 Zrotation Yrotation Xrotation
		JOINT LeftHip
		{
			OFFSET 1.40001 -1.72600 0.84541
			CHANNELS 3 Zrotation Yrotation Xrotation
			JOINT LeftKnee
			{
				OFFSET 2.34760 -6.44999 0.00000
				CHANNELS 3 Zrotation Yrotation Xrotation
				JOINT LeftAnkle
				{
					OFFSET 2.50650 -6.88655 0.00000
					CHANNELS 3 Zrotation Yrotation Xrotation
					JOINT LeftToe
					{
						OFFSET 0.12464 -0.34243 1.95563
						CHANNELS 3 Zrotation Yrotation Xrotation
						End Site
						{
							OFFSET 0.00000 -0.00000 1.00479
						}
					}
				}
			}
		}
	}
	JOINT RHipJoint
	{
		OFFSET 0 0 0
		CHANNELS 3 Zrotation Yrotation Xrotation
		JOINT RightHip
		{
			OFFSET -1.40958 -1.72600 0.84541
			CHANNELS 3 Zrotation Yrotation Xrotation
			JOINT RightKnee
			{
				OFFSET -2.37905 -6.53640 0.00000
				CHANNELS 3 Zrotation Yrotation Xrotation
				JOINT RightAnkle
				{
					OFFSET -2.50470 -6.88163 0.00000
					CHANNELS 3 Zrotation Yrotation Xrotation
					JOINT RightToe
					{
						OFFSET -0.12236 -0.33619 1.81785
						CHANNELS 3 Zrotation Yrotation Xrotation
						End Site
						{
							OFFSET -0.00000 -0.00000 0.93746
						}
					}
				}
			}
		}
	}
	JOINT lowerback
	{
		OFFSET 0 0 0
		CHANNELS 3 Zrotation Yrotation Xrotation
		JOINT Chest
		{
			OFFSET -0.02146 1.96915 0.26424
			CHANNELS 3 Zrotation Yrotation Xrotation
			JOINT Chest2
			{
				OFFSET 0.01522 1.99484 0.02086
				CHANNELS 3 Zrotation Yrotation Xrotation
				JOINT lowerneck
				{
					OFFSET 0 0 0
					CHANNELS 3 Zrotation Yrotation Xrotation
					JOINT Neck
					{
						OFFSET -0.02954 1.71757 0.03505
						CHANNELS 3 Zrotation Yrotation Xrotation
						JOINT Head
						{
							OFFSET 0.04170 1.65781 -0.11024
							CHANNELS 3 Zrotation Yrotation Xrotation
							End Site
							{
								OFFSET 0.01600 1.81465 -0.05144
							}
						}
					}
				}
				JOINT LeftCollar
				{
					OFFSET 0 0 0
					CHANNELS 3 Zrotation Yrotation Xrotation
					JOINT LeftShoulder
					{
						OFFSET 2.77679 1.60868 -0.78649
CHANNELS 3 Zrotation Xrotation Yrotation
						JOINT LeftElbow
						{
OFFSET 0 -4.626720 -0.000000
CHANNELS 3 Zrotation Xrotation Yrotation
							JOINT LeftWrist
							{
OFFSET 0 -3.110180 -0.000000
CHANNELS 3 Zrotation Xrotation Yrotation
								JOINT lhand
								{
									OFFSET 0 0 0
CHANNELS 3 Zrotation Xrotation Yrotation
									JOINT LFingers
									{
OFFSET 0 -0.743830 -0.000000
CHANNELS 3 Zrotation Xrotation Yrotation
										End Site
										{
OFFSET 0 -0.599700 -0.000000
										}
									}
								}
								JOINT LThumb
								{
OFFSET 0 0.000000 0.000000
CHANNELS 3 Zrotation Xrotation Yrotation
									End Site
									{
OFFSET 0 -0.608850 0.608850
									}
								}
							}
						}
					}
				}
				JOINT RightCollar
				{
					OFFSET 0 0 0
					CHANNELS 3 Zrotation Yrotation Xrotation
					JOINT RightShoulder
					{
						OFFSET -2.73247 1.63658 -0.74740
CHANNELS 3 Zrotation Xrotation Yrotation
						JOINT RightElbow
						{
OFFSET 0 -4.559190 -0.000000
CHANNELS 3 Zrotation Xrotation Yrotation
							JOINT RightWrist
							{
OFFSET 0 -3.227480 -0.000000
CHANNELS 3 Zrotation Xrotation Yrotation
								JOINT rhand
								{
									OFFSET 0 0 0
CHANNELS 3 Zrotation Xrotation Yrotation
									JOINT RFingers
									{
OFFSET 0 -0.700880 -0.000000
CHANNELS 3 Zrotation Xrotation Yrotation
										End Site
										{
OFFSET 0 -0.565070 -0.000000
										}
									}
								}
								JOINT RThumb
								{
OFFSET 0 0.000000 0.000000
CHANNELS 3 Zrotation Xrotation Yrotation
									End Site
									{
OFFSET 0 -0.573700 0.573700
									}
								}
							}
						}
					}
				}
			}
		}
	}
}
MOTION
Frames: 8
Frame Time: 0.008333333333333333
-0.411236 16.480986 2.233843 1.639085 -2.611250 15.599685 0.000000 0.000000 0.000000 -23.859714 -7.946593 -27.553199 3.309514 11.179992 32.889302 1.016866 -8.873094 -18.137394 0.001116 -0.096774 -0.265786 0.000000 0.000000 0.000000 14.735499 6.990999 -39.639402 -14.195350 -19.171545 72.799517 -0.088973 3.985309 -5.571191 -0.440080 4.245285 -11.769456 -3.713084 -0.264330 -14.841654 -1.052813 0.225542 -4.849362 1.032935 0.114363 3.173439 -0.810456 -0.557226 -4.698376 2.448369 -0.965429 11.581794 0.924173 -0.386726 4.707762 0.000000 0.000000 0.000000 1.140337 5.260055 -2.807585 8.467434 -14.306926 1.065456 16.104716 22.131308 13.952049 0.000000 0.000000 0.000000 -7.125000 0.000000 0.000000 -7.737939 15.570111 -5.427571 0.000000 0.000000 0.000000 1.859844 13.386172 14.305055 -13.162303 -21.519443 -2.515969 -17.632747 5.385728 32.232523 0.000000 0.000000 0.000000 7.125000 0.000000 0.000000 17.566160 62.624618 -7.650160
-0.411153 16.473919 2.374862 1.605330 -2.341065 15.529338 0.000000 0.000000 0.000000 -23.949034 -7.421824 -27.063225 3.316515 11.190635 32.925414 1.042972 -9.636193 -18.449315 0.001034 0.187976 0.516536 0.000000 0.000000 0.000000 14.769492 7.186282 -40.394879 -13.965712 -19.103374 72.099401 -0.128488 4.069863 -6.550822 -0.357949 3.843299 -10.636349 -3.701600 -0.360221 -14.817859 -0.957624 0.094088 -4.802872 1.103617 0.048654 3.215176 -0.786590 -0.591397 -4.575421 2.374280 -1.006280 11.624548 0.892408 -0.410161 4.698226 0.000000 0.000000 0.000000 1.413580 4.318911 -5.592415 8.832248 -14.892314 1.156911 16.179235 19.919056 13.680142 0.000000 0.000000 0.000000 -7.125000 0.000000 0.000000 -7.684512 15.842641 -5.343565 0.000000 0.000000 0.000000 1.944894 13.744128 12.649622 -12.362563 -20.344828 -2.227698 -17.783095 7.141112 32.921014 0.000000 0.000000 0.000000 7.125000 0.000000 0.000000 17.979284 63.316158 -8.124326
-0.409588 16.464531 2.517170 1.497016 -2.120242 15.473296 0.000000 0.000000 0.000000 -23.950456 -6.891706 -26.583175 3.325191 11.203792 32.970289 1.074619 -10.272988 -18.803059 0.005657 0.458226 1.259227 0.000000 0.000000 0.000000 14.843953 7.457671 -41.112465 -13.703854 -19.021090 71.297469 -0.177346 4.217505 -7.583036 -0.373382 3.924232 -10.863715 -3.573800 -0.406234 -14.897298 -0.854573 0.017280 -4.709920 1.126161 0.007689 3.359760 -0.936650 -0.659529 -4.455302 2.458200 -1.093401 11.547313 0.942546 -0.456601 4.649510 0.000000 0.000000 0.000000 1.671101 3.363718 -8.370091 9.264079 -15.579390 1.270985 16.063525 17.547893 13.307836 0.000000 0.000000 0.000000 -7.125000 0.000000 0.000000 -7.761320 16.233935 -5.331475 0.000000 0.000000 0.000000 2.035357 14.050080 10.788237 -11.573005 -19.157646 -1.962497 -18.136626 8.664186 32.671957 0.000000 0.000000 0.000000 7.125000 0.000000 0.000000 17.365673 63.172996 -7.780610
-0.411350 16.453627 2.656788 1.324086 -1.895800 15.480698 0.000000 0.000000 0.000000 -23.845880 -6.395780 -26.184470 3.331031 11.212645 33.000393 1.105876 -10.838417 -19.145894 0.007785 0.568427 1.562075 0.000000 0.000000 0.000000 15.011792 7.784235 -41.864096 -13.404233 -18.921832 70.375254 -0.230607 4.198054 -8.571765 -0.532918 4.623449 -12.847173 -3.417483 -0.447259 -14.974488 -0.730636 -0.060066 -4.663535 1.154331 -0.032101 3.454108 -1.066166 -0.716655 -4.353575 2.531652 -1.167020 11.504661 0.986473 -0.495753 4.616984 0.000000 0.000000 0.000000 1.976264 2.484245 -11.121843 9.734065 -16.320811 1.400859 15.900172 15.169882 12.847729 0.000000 0.000000 0.000000 -7.125000 0.000000 0.000000 -7.872466 16.718315 -5.325156 0.000000 0.000000 0.000000 2.118923 14.392914 8.745573 -10.886853 -18.111339 -1.743130 -18.092282 10.158107 32.251013 0.000000 0.000000 0.000000 7.125000 0.000000 0.000000 17.062574 62.761439 -7.475733
-0.413760 16.441994 2.794123 1.160830 -1.622195 15.530760 0.000000 0.000000 0.000000 -23.721656 -5.978379 -25.821208 3.334120 11.217320 33.016238 1.131485 -11.381547 -19.444874 0.009261 0.619640 1.702811 0.000000 0.000000 0.000000 15.185738 8.069615 -42.647007 -13.071505 -18.806476 69.346294 -0.283061 4.071964 -9.469456 -0.731662 5.458138 -15.221729 -3.268254 -0.509898 -15.025113 -0.613064 -0.166865 -4.649427 1.174597 -0.085342 3.501333 -1.154043 -0.760791 -4.221912 2.586109 -1.224114 11.428886 1.017122 -0.526248 4.565504 0.000000 0.000000 0.000000 2.318098 1.572031 -13.682708 10.183466 -17.025517 1.528769 15.799213 12.981764 12.378176 0.000000 0.000000 0.000000 -7.125000 0.000000 0.000000 -7.941563 17.207465 -5.288283 0.000000 0.000000 0.000000 2.217147 14.740829 6.439981 -10.250004 -17.127697 -1.549395 -17.800723 11.890334 31.862590 0.000000 0.000000 0.000000 7.125000 0.000000 0.000000 17.066060 62.316757 -7.297046
-0.413973 16.430260 2.928751 1.097037 -1.227416 15.616173 0.000000 0.000000 0.000000 -23.670024 -5.721642 -25.454165 3.333480 11.216324 33.012825 1.143149 -11.950424 -19.644646 0.011964 0.705694 1.939280 0.000000 0.000000 0.000000 15.267169 8.186107 -43.470275 -12.698061 -18.669715 68.184360 -0.328364 3.867356 -10.185335 -0.863587 5.922613 -16.560891 -3.170110 -0.633431 -15.010605 -0.535900 -0.348146 -4.663722 1.168196 -0.174240 3.486540 -1.159519 -0.784545 -3.992626 2.604244 -1.254695 11.228616 1.021105 -0.543103 4.446950 0.000000 0.000000 0.000000 2.698298 0.488683 -15.786821 10.536214 -17.573699 1.633384 15.912505 11.285800 11.986171 0.000000 0.000000 0.000000 -7.125000 0.000000 0.000000 -7.863689 17.601035 -5.166813 0.000000 0.000000 0.000000 2.360736 15.059014 3.673755 -9.619182 -16.140785 -1.367971 -17.339306 14.263986 31.756054 0.000000 0.000000 0.000000 7.125000 0.000000 0.000000 17.491918 62.098281 -7.395190
-0.414187 16.421078 3.064437 1.133997 -0.961225 15.673129 0.000000 0.000000 0.000000 -23.745112 -5.415585 -25.058540 3.334645 11.218068 33.018814 1.167640 -12.416991 -19.927611 0.012425 0.719327 1.976857 0.000000 0.000000 0.000000 15.196660 8.382866 -44.228719 -12.274552 -18.501632 66.853610 -0.355483 3.651477 -10.601195 -0.796184 5.690656 -15.890710 -3.178947 -0.722964 -14.902629 -0.507432 -0.470831 -4.691903 1.182158 -0.233373 3.404496 -1.184548 -0.806555 -3.987202 2.691063 -1.292375 11.238011 1.053233 -0.558526 4.451628 0.000000 0.000000 0.000000 3.075322 -0.539494 -17.754873 10.932924 -18.184213 1.755871 16.159616 9.616862 11.801650 0.000000 0.000000 0.000000 -7.125000 0.000000 0.000000 -7.691723 17.772922 -5.022676 0.000000 0.000000 0.000000 2.529668 15.401857 0.704589 -9.016632 -15.184572 -1.206661 -17.249083 16.973525 31.714716 0.000000 0.000000 0.000000 7.125000 0.000000 0.000000 17.558475 62.036104 -7.398807
-0.414667 16.411759 3.202911 1.147878 -0.680184 15.720198 0.000000 0.000000 0.000000 -23.788156 -5.101654 -24.630507 3.335667 11.219567 33.023969 1.204705 -12.875832 -20.302030 0.011131 0.678295 1.864104 0.000000 0.000000 0.000000 15.160822 8.556639 -44.909405 -11.820424 -18.310401 65.414766 -0.383625 3.398370 -11.026713 -0.757721 5.559040 -15.510244 -3.156241 -0.798084 -14.835896 -0.477269 -0.577210 -4.710838 1.182786 -0.284971 3.353463 -1.220101 -0.827182 -4.053454 2.797091 -1.331231 11.342540 1.094537 -0.573044 4.506071 0.000000 0.000000 0.000000 3.440709 -1.405775 -19.725862 11.477885 -19.013401 1.931482 16.584740 7.838876 11.838064 0.000000 0.000000 0.000000 -7.125000 0.000000 0.000000 -7.395637 17.704094 -4.835852 0.000000 0.000000 0.000000 2.679864 15.773880 -2.246067 -8.481938 -14.329750 -1.069512 -17.153006 19.550023 31.742742 0.000000 0.000000 0.000000 7.125000 0.000000 0.000000 17.687368 62.038439 -7.456138
